<svg id="レイヤー_1" data-name="レイヤー 1" xmlns="http://www.w3.org/2000/svg" viewBox="0 0 40.25 40.25"><defs><style>.cls-1{fill:#fdd35c;stroke-width:0.25px;}.cls-1,.cls-3,.cls-5,.cls-6,.cls-7{stroke:#34373a;stroke-miterlimit:10;}.cls-2{fill:#34373a;}.cls-3,.cls-6{fill:none;}.cls-3,.cls-7{stroke-width:0.75px;}.cls-4,.cls-5{fill:#fff;}.cls-5,.cls-6{stroke-width:0.5px;}.cls-7{fill:#231815;}</style></defs><rect class="cls-1" x="0.13" y="0.13" width="40" height="40" rx="4.98"/><path class="cls-2" d="M421,308.08a16.82,16.82,0,0,0-14.63-1.33V292.23A17,17,0,0,1,421,294Z" transform="translate(-400.82 -277.51)"/><path class="cls-3" d="M421,308.08a16.82,16.82,0,0,0-14.63-1.33V292.23A17,17,0,0,1,421,294Z" transform="translate(-400.82 -277.51)"/><path class="cls-2" d="M421,308.08a16.84,16.84,0,0,1,14.64-1.33V292.23A17,17,0,0,0,421,294Z" transform="translate(-400.82 -277.51)"/><path class="cls-3" d="M421,308.08a16.84,16.84,0,0,1,14.64-1.33V292.23A17,17,0,0,0,421,294Z" transform="translate(-400.82 -277.51)"/><path class="cls-4" d="M421,307.46a16.28,16.28,0,0,0-13.53-2.79v-14.9A16.28,16.28,0,0,1,421,292.56Z" transform="translate(-400.82 -277.51)"/><path class="cls-3" d="M421,307.46a16.28,16.28,0,0,0-13.53-2.79v-14.9A16.28,16.28,0,0,1,421,292.56Z" transform="translate(-400.82 -277.51)"/><path class="cls-4" d="M434.48,289.77A16.28,16.28,0,0,0,421,292.56v14.9a16.28,16.28,0,0,1,13.53-2.79Z" transform="translate(-400.82 -277.51)"/><path class="cls-3" d="M434.48,289.77A16.28,16.28,0,0,0,421,292.56v14.9a16.28,16.28,0,0,1,13.53-2.79Z" transform="translate(-400.82 -277.51)"/><circle class="cls-5" cx="34.02" cy="12.25" r="4.64"/><circle class="cls-5" cx="33.37" cy="11.52" r="1.82"/><line class="cls-5" x1="34.7" y1="12.99" x2="36.5" y2="14.79"/><line class="cls-6" x1="34.02" y1="3.43" x2="34.02" y2="6.22"/><line class="cls-6" x1="30.55" y1="4.08" x2="31.94" y2="6.49"/><line class="cls-6" x1="37.5" y1="4.08" x2="36.11" y2="6.49"/><line class="cls-7" x1="20.13" y1="29.54" x2="20.13" y2="31.28"/></svg>